<svg width="10" height="14" viewBox="0 0 10 14" fill="none" xmlns="http://www.w3.org/2000/svg">
<g clip-path="url(#clip0_7_80)">
<path d="M5.10156 3.33203C4.71094 3.33203 4.34961 3.42969 4.01758 3.625C3.68555 3.82031 3.42188 4.08203 3.22656 4.41016C3.03125 4.73828 2.93359 5.09961 2.93359 5.49414C2.93359 5.88867 3.03125 6.25195 3.22656 6.58398C3.42188 6.91602 3.68555 7.17969 4.01758 7.375C4.34961 7.57031 4.70898 7.66602 5.0957 7.66211C5.48242 7.6582 5.83984 7.55664 6.16797 7.35742C6.49609 7.1582 6.75391 6.89453 6.94141 6.56641C7.12891 6.23828 7.22266 5.88086 7.22266 5.49414C7.22266 5.10742 7.12891 4.75 6.94141 4.42188C6.75391 4.09375 6.49609 3.83203 6.16797 3.63672C5.83984 3.44141 5.48438 3.33984 5.10156 3.33203ZM3.92969 5.5C3.92969 5.28906 3.98242 5.09375 4.08789 4.91406C4.19336 4.73438 4.33594 4.5918 4.51562 4.48633C4.69531 4.38086 4.89062 4.32812 5.10156 4.32812C5.3125 4.32812 5.50781 4.38086 5.6875 4.48633C5.86719 4.5918 6.00977 4.73438 6.11523 4.91406C6.2207 5.09375 6.27344 5.28906 6.27344 5.5C6.27344 5.71094 6.2207 5.9043 6.11523 6.08008C6.00977 6.25586 5.86719 6.39648 5.6875 6.50195C5.50781 6.60742 5.3125 6.66016 5.10156 6.66016C4.89062 6.66016 4.69531 6.60742 4.51562 6.50195C4.33594 6.39648 4.19336 6.25586 4.08789 6.08008C3.98242 5.9043 3.92969 5.71094 3.92969 5.5ZM5.10156 1C4.28906 1 3.53125 1.20312 2.82812 1.60938C2.14844 2 1.60938 2.53516 1.21094 3.21484C0.804687 3.91016 0.601562 4.66406 0.601562 5.47656C0.601562 6.32031 0.804687 7.16797 1.21094 8.01953C1.60156 8.83984 2.17969 9.65625 2.94531 10.4688C3.51562 11.0703 4.13672 11.6172 4.80859 12.1094L5.10156 12.3203L5.61719 11.9336C6.20312 11.4883 6.75 11 7.25781 10.4688C8.02344 9.65625 8.60156 8.83984 8.99219 8.01953C9.39844 7.16797 9.60156 6.32031 9.60156 5.47656C9.60156 4.66406 9.39844 3.91016 8.99219 3.21484C8.59375 2.53516 8.05469 2 7.375 1.60938C6.67188 1.20312 5.91406 1 5.10156 1ZM1.59766 5.47656C1.60547 5.01562 1.69727 4.57031 1.87305 4.14062C2.04883 3.71094 2.30078 3.33398 2.62891 3.00977C2.95703 2.68555 3.33594 2.43555 3.76562 2.25977C4.19531 2.08398 4.64062 1.99609 5.10156 1.99609C5.5625 1.99609 6.00781 2.08398 6.4375 2.25977C6.86719 2.43555 7.24609 2.68555 7.57422 3.00977C7.90234 3.33398 8.1543 3.71094 8.33008 4.14062C8.50586 4.57031 8.59766 5.01562 8.60547 5.47656C8.60547 6.17188 8.43359 6.87891 8.08984 7.59766C7.74609 8.31641 7.22656 9.04297 6.53125 9.77734C6.10156 10.2383 5.625 10.6719 5.10156 11.0781C4.57812 10.6719 4.10156 10.2383 3.67188 9.77734C2.28906 8.31641 1.59766 6.88281 1.59766 5.47656Z" fill="#222222"/>
</g>
<defs>
<clipPath id="clip0_7_80">
<rect width="9" height="13.3203" fill="white" transform="matrix(1 0 0 -1 0.601562 13.3203)"/>
</clipPath>
</defs>
</svg>
